<?xml version="1.0" encoding="UTF-8" standalone="no"?>
<!-- Created with Inkscape (http://www.inkscape.org/) -->

<svg
   width="69.338646mm"
   height="71.73616mm"
   viewBox="0 0 69.338649 71.736159"
   version="1.1"
   id="svg5"
   xmlns="http://www.w3.org/2000/svg"
   xmlns:svg="http://www.w3.org/2000/svg">
  <defs
     id="defs2">
    <marker
       style="overflow:visible"
       id="marker2001"
       refX="0"
       refY="0"
       orient="auto">
      <path
         transform="scale(-0.2)"
         style="fill:context-stroke;fill-rule:evenodd;stroke:context-stroke;stroke-width:1pt"
         d="M 5.77,0 -2.88,5 V -5 Z"
         id="path1999" />
    </marker>
    <marker
       style="overflow:visible"
       id="marker1991"
       refX="0"
       refY="0"
       orient="auto">
      <path
         transform="matrix(0.2,0,0,0.2,1.2,0)"
         style="fill:context-stroke;fill-rule:evenodd;stroke:context-stroke;stroke-width:1pt"
         d="M 0,0 5,-5 -12.5,0 5,5 Z"
         id="path1989" />
    </marker>
    <marker
       style="overflow:visible"
       id="Arrow1Sstart"
       refX="0"
       refY="0"
       orient="auto">
      <path
         transform="matrix(0.2,0,0,0.2,1.2,0)"
         style="fill:context-stroke;fill-rule:evenodd;stroke:context-stroke;stroke-width:1pt"
         d="M 0,0 5,-5 -12.5,0 5,5 Z"
         id="path1386" />
    </marker>
    <marker
       style="overflow:visible"
       id="Arrow2Lstart"
       refX="0"
       refY="0"
       orient="auto">
      <path
         transform="matrix(1.1,0,0,1.1,1.1,0)"
         d="M 8.7185878,4.0337352 -2.2072895,0.01601326 8.7185884,-4.0017078 c -1.7454984,2.3720609 -1.7354408,5.6174519 -6e-7,8.035443 z"
         style="fill:context-stroke;fill-rule:evenodd;stroke:context-stroke;stroke-width:0.625;stroke-linejoin:round"
         id="path1392" />
    </marker>
    <marker
       style="overflow:visible"
       id="TriangleInS"
       refX="0"
       refY="0"
       orient="auto">
      <path
         transform="scale(-0.2)"
         style="fill:context-stroke;fill-rule:evenodd;stroke:context-stroke;stroke-width:1pt"
         d="M 5.77,0 -2.88,5 V -5 Z"
         id="path1513" />
    </marker>
    <marker
       style="overflow:visible"
       id="TriangleOutS"
       refX="0"
       refY="0"
       orient="auto">
      <path
         transform="scale(0.2)"
         style="fill:context-stroke;fill-rule:evenodd;stroke:context-stroke;stroke-width:1pt"
         d="M 5.77,0 -2.88,5 V -5 Z"
         id="path1522" />
    </marker>
    <marker
       style="overflow:visible"
       id="Arrow2Send"
       refX="0"
       refY="0"
       orient="auto">
      <path
         transform="matrix(-0.3,0,0,-0.3,0.69,0)"
         d="M 8.7185878,4.0337352 -2.2072895,0.01601326 8.7185884,-4.0017078 c -1.7454984,2.3720609 -1.7354408,5.6174519 -6e-7,8.035443 z"
         style="fill:context-stroke;fill-rule:evenodd;stroke:context-stroke;stroke-width:0.625;stroke-linejoin:round"
         id="path1407" />
    </marker>
    <marker
       style="overflow:visible"
       id="Arrow1Send"
       refX="0"
       refY="0"
       orient="auto">
      <path
         transform="matrix(-0.2,0,0,-0.2,-1.2,0)"
         style="fill:context-stroke;fill-rule:evenodd;stroke:context-stroke;stroke-width:1pt"
         d="M 0,0 5,-5 -12.5,0 5,5 Z"
         id="path1389" />
    </marker>
    <marker
       style="overflow:visible"
       id="Arrow2Sstart"
       refX="0"
       refY="0"
       orient="auto">
      <path
         transform="matrix(0.3,0,0,0.3,-0.69,0)"
         d="M 8.7185878,4.0337352 -2.2072895,0.01601326 8.7185884,-4.0017078 c -1.7454984,2.3720609 -1.7354408,5.6174519 -6e-7,8.035443 z"
         style="fill:context-stroke;fill-rule:evenodd;stroke:context-stroke;stroke-width:0.625;stroke-linejoin:round"
         id="path1404" />
    </marker>
    <marker
       style="overflow:visible"
       id="TriangleInL"
       refX="0"
       refY="0"
       orient="auto">
      <path
         transform="scale(-0.8)"
         style="fill:context-stroke;fill-rule:evenodd;stroke:context-stroke;stroke-width:1pt"
         d="M 5.77,0 -2.88,5 V -5 Z"
         id="path1507" />
    </marker>
  </defs>
  <g
     id="layer1"
     transform="translate(-70.124912,-95.478138)"
     style="display:inline">
    <path
       id="path5723"
       style="fill:#000000;fill-opacity:1;fill-rule:evenodd;stroke-width:0;stroke-miterlimit:4;stroke-dasharray:none"
       d="m 114.02466,135.39465 c 0,2.39491 -1.94145,4.33636 -4.33636,4.33636 -2.39491,0 -4.33637,-1.94145 -4.33637,-4.33636 0,-2.39491 1.94146,-4.33637 4.33637,-4.33637 2.39491,0 4.33636,1.94146 4.33636,4.33637 z m 7.34546,-0.19945 c 0,6.32078 -5.12401,11.4448 -11.44479,11.4448 -6.32079,0 -11.444804,-5.12402 -11.444804,-11.4448 0,-6.3208 5.124014,-11.44479 11.444804,-11.44479 6.32077,0 11.44479,5.12399 11.44479,11.44479 z m -5.33009,6.27948 c -5.54222,5.54222 -15.01516,1.61687 -15.01516,-6.22227 0,-5.88506 5.72394,-10.17497 11.28479,-8.45737 6.44264,1.9899 8.46442,9.94557 3.73037,14.67964 z m -10.86629,-10.87035 c -4.06194,3.76201 -1.94889,11.36275 4.48431,11.36275 7.46411,0 9.10072,-10.4602 2.00993,-12.84466 -1.0294,-0.34616 -3.12171,-0.33211 -4.08844,0.0274 -0.96218,0.35787 -1.76163,0.85794 -2.4058,1.45452 z" />
    <g
       id="path1819">
      <g
         id="g2283">
        <g
           id="path2293" />
        <g
           id="path2285" />
      </g>
    </g>
  </g>
  <g
     id="g3820"
     transform="translate(-70.124912,-95.478138)"
     style="display:inline;opacity:1">
    <g
       id="g3810"
       transform="rotate(-1.7115188)"
       style="fill:#000000;fill-opacity:1">
      <path
         style="color:#000000;fill:#000000;fill-opacity:1;fill-rule:evenodd;stroke-width:3.16412;stroke-miterlimit:3;-inkscape-stroke:none"
         d="m 187.07227,183.77734 c -2.41263,2.66304 -5.09275,5.07089 -7.99805,7.18555 l 6.88672,7.30273 -4.31836,4.4375 22.08594,6.86133 -5.1543,-22.93945 -4.97461,4.07617 z"
         transform="matrix(0.2644653,0.00790236,-0.00790236,0.2644653,67.769367,98.029839)"
         id="path6430" />
      <path
         style="color:#000000;display:inline;fill:#000000;fill-opacity:1;fill-rule:evenodd;stroke-width:0.837173;stroke-miterlimit:3;-inkscape-stroke:none"
         d="m 115.32472,128.4149 c 0.68343,0.66096 1.29707,1.39045 1.83123,2.17696 l 1.99051,-1.75821 1.13625,1.18021 2.0048,-5.78133 -6.1106,1.16529 1.03503,1.35065 z"
         id="path6430-6" />
      <path
         style="color:#000000;display:inline;fill:#000000;fill-opacity:1;fill-rule:evenodd;stroke-width:0.837173;stroke-miterlimit:3;-inkscape-stroke:none"
         d="m 96.252622,148.48252 c -0.683485,-0.6609 -1.297187,-1.39033 -1.83142,-2.1768 l -1.990355,1.75838 -1.136352,-1.1801 -2.00428,5.7815 6.110496,-1.16584 -1.035153,-1.35055 z"
         id="path6430-7" />
      <path
         style="color:#000000;fill:#000000;fill-opacity:1;fill-rule:evenodd;stroke-width:3.16412;stroke-miterlimit:3;-inkscape-stroke:none"
         d="m 82.0625,77.808594 5.169922,22.939456 4.921875,-4.046878 16.150393,18.023438 c 2.32363,-2.73836 4.92257,-5.23062 7.75586,-7.4375 L 99.800781,89.138672 104.16992,84.662109 Z"
         transform="matrix(0.2644653,0.00790236,-0.00790236,0.2644653,67.769367,98.029839)"
         id="path3802" />
      <g
         id="g3808"
         style="fill:#000000;fill-opacity:1">
        <g
           id="g3804"
           style="fill:#000000;fill-opacity:1" />
        <g
           id="g3806"
           style="fill:#000000;fill-opacity:1" />
      </g>
    </g>
    <g
       id="g3818">
      <g
         id="g3816">
        <g
           id="g3812" />
        <g
           id="g3814" />
      </g>
    </g>
  </g>
  <g
     id="g842"
     transform="translate(-70.124912,-95.478138)"
     style="display:inline">
    <path
       id="path840"
       style="fill:#000000;fill-opacity:1;fill-rule:evenodd;stroke-width:0;stroke-miterlimit:4;stroke-dasharray:none"
       d="m 112.24005,97.846235 c -1.02597,0.714028 -2.07129,1.403444 -3.02911,2.206495 -1.79987,-1.468144 -3.53369,-3.176846 -5.83665,-3.817563 -2.62004,-0.781857 -5.419036,-0.718327 -8.110758,-0.42537 -1.977675,0.257941 -4.221628,0.870101 -5.324079,2.674578 -0.185425,0.303502 -0.291027,0.652103 -0.345703,1.003906 -1.556539,0.331636 -2.549511,1.996829 -2.591797,3.476559 -0.04956,1.73437 1.759539,2.69309 3.171311,3.28887 1.215033,0.51276 2.49057,0.88549 3.652908,1.51777 -3.372092,1.91062 -6.491515,4.27346 -9.292166,6.93914 -1.974572,1.87941 -3.621801,4.08804 -5.187454,6.31506 -0.864568,1.39862 -1.681855,2.82074 -2.681918,4.13173 -1.633067,2.1408 -2.870204,4.55147 -3.773589,7.08998 -1.184333,3.32797 -1.944073,6.78194 -2.64558,10.23285 -0.358421,1.76317 0.08579,3.65799 1.287096,5.03286 1.554348,1.77892 3.525208,3.1248 5.446561,4.46406 2.434034,1.69662 5.260314,2.7258 8.121293,3.45578 1.24204,0.31691 2.144375,1.22682 3.029378,2.08742 6.169793,5.65069 14.234927,9.52541 22.695187,9.68913 7.30237,0.14132 14.59654,-2.83693 19.67251,-8.10691 4.06253,-4.21781 7.03693,-9.52178 8.34909,-15.22587 1.00107,-4.35172 0.55835,-8.85422 0.23352,-13.25944 -0.3245,-4.40082 -1.45322,-8.78839 -3.73243,-12.61947 -1.69859,-2.85512 -3.82411,-5.48575 -6.58711,-7.37025 -3.50422,-2.39005 -7.44996,-4.0701 -11.53204,-5.16075 1.11873,-1.76359 2.49398,-3.44652 4.13356,-4.7387 1.05045,-0.827874 1.08247,-2.269376 0.73319,-3.474618 -0.38446,-1.326643 -1.86457,-1.916761 -3.76282,-1.746811 -1.89826,0.169949 -4.14121,0.981623 -6.0924,2.339564 z m -7.78548,3.224095 c 1.48814,1.06537 2.64553,2.87989 4.54738,3.15233 1.61222,0.23095 2.65931,-1.34977 3.86328,-2.17969 1.26975,-0.87526 2.56357,-1.78455 4.04102,-2.335939 -1.68934,1.818239 -3.25106,3.864719 -4.05469,6.240239 -0.37251,1.10114 0.11847,2.43242 1.27539,2.80664 1.18455,0.38316 2.34764,0.47482 3.54742,0.81215 2.8668,0.80602 5.63023,2.01081 8.02963,3.67199 3.25716,2.25503 6.01539,5.42186 7.49131,9.07445 1.60552,3.97332 2.33739,8.31447 2.40807,12.49416 0.0768,4.54138 -0.0117,9.36968 -2.33305,13.42528 -2.5059,4.37811 -5.7687,8.51403 -9.97345,11.30517 -3.88441,2.57849 -8.60128,3.76805 -13.24496,3.49256 -5.3157,-0.31536 -10.449822,-2.24842 -14.922503,-5.07767 -1.545741,-1.04723 -3.1195,-2.14528 -4.244651,-3.66098 1.409566,-2.71186 1.577756,-5.85927 1.558593,-8.85352 -0.01401,-2.18926 -1.032583,-4.17151 -1.777343,-6.18359 -1.545622,-4.17572 -3.159721,-9.01391 -4.200445,-11.27441 -0.860038,-1.86804 -2.564404,-4.04203 -4.014399,-4.78809 3.026791,-4.42456 7.077921,-8.02098 11.466797,-11.03516 1.287497,-0.88422 2.842825,-1.40479 3.964843,-2.50586 0.964169,-0.94617 1.003153,-2.60083 0.05078,-3.62891 -1.533949,-1.65588 -4.49459,-2.21151 -6.483464,-3.07135 1.833185,-0.47271 0.863566,-1.31696 2.061589,-2.66302 0.731373,-0.821749 3.477882,-1.035611 4.547484,-1.053737 1.505904,-0.02552 4.621979,0.430772 6.395369,1.836957 z m -20.896226,29.48768 c 1.065492,2.39845 1.98506,4.88574 2.47789,7.47898 0.93627,3.93109 1.876827,8.0461 1.090719,12.08606 -0.143608,0.63347 -0.312012,1.3114 -0.693359,1.83398 -0.905887,-0.0497 -1.751767,-0.47994 -2.623047,-0.73242 -2.266188,-0.65669 -4.448128,-1.68915 -6.195104,-3.23269 -1.158871,-1.02392 -2.722833,-1.78479 -3.379115,-3.21458 -0.587872,-1.28075 -0.05803,-2.93442 0.292212,-4.22899 0.904201,-3.34213 1.925385,-6.40619 3.081453,-9.61582 0.752843,-1.58492 1.746777,-3.04459 2.837273,-4.41495 1.262965,0.35551 2.169804,1.9216 3.111078,4.04043 z" />
  </g>
</svg>
